<svg width="353" height="351" viewBox="0 0 353 351" fill="none" xmlns="http://www.w3.org/2000/svg">
<path fill-rule="evenodd" clip-rule="evenodd" d="M199.859 0C255.985 73.0548 249.575 172.036 187.697 234.778C184.204 224.999 181.246 214.973 179.15 204.783C184.04 179.925 183.464 154.779 178.78 129.921L176.603 118.293L175 130.044C171.385 156.628 169.823 178.158 175.247 204.825C173.151 215.302 170.07 225.574 166.084 235.476C103.589 172.817 96.8916 73.3424 153.224 0C122.161 4.76623 94.9605 16.3531 72.4442 32.6651C56.6252 95.2424 72.8961 148.657 110.656 195.95C69.6913 156.71 47.1749 109.788 49.4348 52.5518C26.3843 76.3007 10.6886 105.925 3.868 137.851C17.7558 170.516 40.3543 195.333 69.116 214.686C42.532 203.756 19.3172 187.116 0.334416 163.367C-1.71999 196.443 5.63479 230.792 23.9601 262.677C69.6913 278.824 130.543 276.441 176.438 245.379L176.521 245.337C222.416 276.441 283.268 278.824 329.04 262.677C347.365 230.792 354.72 196.443 352.666 163.367C333.683 187.116 310.468 203.756 283.884 214.686C312.687 195.374 335.285 170.516 349.132 137.851C342.311 105.966 326.616 76.3007 303.565 52.5518C305.825 109.788 283.309 156.71 242.344 195.95C280.104 148.657 296.416 95.2424 280.556 32.6651C258.039 16.3531 230.839 4.76623 199.776 0L199.859 0Z" fill="currentColor"/>
<path fill-rule="evenodd" clip-rule="evenodd" d="M311.208 290C254.301 292.548 210.747 275.989 176.644 246.036C135.885 278.413 91.0163 292.26 42.6145 290C55.3518 304.135 69.404 315.927 84.3601 325.336C97.7548 320.652 109.218 314.859 119.49 308.408C111.191 316.338 102.233 323.61 92.5777 330.185C110.903 340.457 130.461 347.236 150.389 350.441C160.044 340.21 168.55 328.5 176.48 315.927C183.999 328.212 192.504 339.881 202.571 350.605C222.499 347.524 242.18 340.826 260.916 330.349C250.973 323.898 241.933 316.584 233.716 308.531C244.563 315.228 256.273 321.022 269.298 325.377C284.09 316.05 298.224 304.299 311.249 290H311.208Z" fill="currentColor"/>
</svg>
